<svg width="16" height="27" viewBox="0 0 16 27" fill="none" xmlns="http://www.w3.org/2000/svg">
<path d="M12.325 26.3146L0.389605 14.4146C0.247938 14.2729 0.147355 14.1194 0.0878552 13.9542C0.0283552 13.7889 -0.000922309 13.6118 2.21356e-05 13.4229C2.21356e-05 13.234 0.0292996 13.0569 0.0878552 12.8917C0.146411 12.7264 0.246994 12.5729 0.389605 12.4312L12.325 0.495833C12.6556 0.165278 13.0688 0 13.5646 0C14.0604 0 14.4854 0.177083 14.8396 0.53125C15.1938 0.885417 15.3709 1.29861 15.3709 1.77083C15.3709 2.24306 15.1938 2.65625 14.8396 3.01042L4.42711 13.4229L14.8396 23.8354C15.1702 24.166 15.3354 24.5735 15.3354 25.058C15.3354 25.5425 15.1584 25.9614 14.8042 26.3146C14.45 26.6688 14.0368 26.8458 13.5646 26.8458C13.0924 26.8458 12.6792 26.6688 12.325 26.3146Z" fill="#111111"/>
</svg>
