<svg width="24" height="21" viewBox="0 0 24 21" fill="none" xmlns="http://www.w3.org/2000/svg">
  <path 
    d="M24 19.6667V8.33333C24 8.12634 23.9458 7.92219 23.8416 7.73705C23.7375 7.55191 23.5863 7.39086 23.4 7.26667L12.9 0.266666C12.6404 0.0935702 12.3246 0 12 0C11.6754 0 11.3596 0.0935702 11.1 0.266666L0.6 7.26667C0.413706 7.39086 0.262501 7.55191 0.158359 7.73705C0.0542175 7.92219 0 8.12634 0 8.33333V19.6667C0 20.0203 0.158036 20.3594 0.43934 20.6095C0.720645 20.8595 1.10218 21 1.5 21H7.5C7.89782 21 8.27936 20.8595 8.56066 20.6095C8.84196 20.3594 9 20.0203 9 19.6667V15.6667C9 15.313 9.15804 14.9739 9.43934 14.7239C9.72064 14.4738 10.1022 14.3333 10.5 14.3333H13.5C13.8978 14.3333 14.2794 14.4738 14.5607 14.7239C14.842 14.9739 15 15.313 15 15.6667V19.6667C15 20.0203 15.158 20.3594 15.4393 20.6095C15.7206 20.8595 16.1022 21 16.5 21H22.5C22.8978 21 23.2794 20.8595 23.5607 20.6095C23.842 20.3594 24 20.0203 24 19.6667Z" 
    fill="currentColor"
  />
</svg>
